# xmcd
#
# Track frame offsets: 
#        150
#        18225
#        33595
#        52397
#        76697
#        93112
#        107372
#        128672
#        149550
#        169925
#        190280
#        208372
#
# Disc length: 3000 seconds
#
# Revision: 4
# Processed by: cddbd v1.5.2PL0 Copyright (c) Steve Scherf et al.
# Submitted via: ExactAudioCopy v0.95b4
#
DISCID=a40bb60c
DTITLE=Tommy Castro - Can't Keep A Good Man Down
DYEAR=1997
DGENRE=Blues
TTITLE0=Can't Keep A Good Man Down
TTITLE1=You Gotta Do What You Gotta Do
TTITLE2=Suitcase Full Of Bues
TTITLE3=My Time After Awhile
TTITLE4=You Knew The Job Was Dangerous
TTITLE5=Nobody Loves Me Like My Baby
TTITLE6=High On The Hog
TTITLE7=Can't You See What You're Doing To Me
TTITLE8=Take The Highway Down
TTITLE9=Hycodan
TTITLE10=I Want To Show You
TTITLE11=You Only Go Around Once
EXTD=
EXTT0=
EXTT1=
EXTT2=
EXTT3=
EXTT4=
EXTT5=
EXTT6=
EXTT7=
EXTT8=
EXTT9=
EXTT10=
EXTT11=
PLAYORDER=
